PathFileType	4	(x/y/z)	S04_PSF_T13.trc
DataRate	CameraRate	NumFrames	NumMarkers	Units	OrigDataRate	OrigDataStartFrame	OrigNumFrames
240	240	4	51	mm	240	1	432
Frame#	Time	Sternum			R.Acromium			L.Acromium			Top.Head			R.ASIS			L.ASIS			R.PSIS			L.PSIS			R.Great.Tro			L.Great.Tro			R.Iliac.Crest			L.Iliac.Crest			V.Sacral			R.Thigh.Upper.Post			R.Thigh.Lower.Ant			R.Thigh.Lower.Post			R.Thigh.Upper.Ant			R.Knee.Lat			R.Knee.Med			R.Shank.Upper.Post			R.Shank.Lower.Ant			R.Shank.Lower.Post			R.Shank.Upper.Ant			R.Ankle.Lat			R.Ankle.Med			R.Heel.Upper			R.Heel.Med			R.Heel.Lat			R.Toe.Lat			R.Toe.Med			R.Toe.Tip			L.Thigh.Upper.Post			L.Thigh.Lower.Ant			L.Thigh.Lower.Post			L.Thigh.Upper.Ant			L.Knee.Lat			L.Knee.Med			L.Shank.Upper.Post			L.Shank.Lower.Ant			L.Shank.Lower.Post			L.Shank.Upper.Ant			L.Ankle.Lat			L.Ankle.Med			L.Heel.Upper			L.Heel.Med			L.Heel.Lat			L.Toe.Lat			L.Toe.Med			L.Toe.Tip			Cervical.Spine			Back			
		X1	Y1	Z1	X2	Y2	Z2	X3	Y3	Z3	X4	Y4	Z4	X5	Y5	Z5	X6	Y6	Z6	X7	Y7	Z7	X8	Y8	Z8	X9	Y9	Z9	X10	Y10	Z10	X11	Y11	Z11	X12	Y12	Z12	X13	Y13	Z13	X14	Y14	Z14	X15	Y15	Z15	X16	Y16	Z16	X17	Y17	Z17	X18	Y18	Z18	X19	Y19	Z19	X20	Y20	Z20	X21	Y21	Z21	X22	Y22	Z22	X23	Y23	Z23	X24	Y24	Z24	X25	Y25	Z25	X26	Y26	Z26	X27	Y27	Z27	X28	Y28	Z28	X29	Y29	Z29	X30	Y30	Z30	X31	Y31	Z31	X32	Y32	Z32	X33	Y33	Z33	X34	Y34	Z34	X35	Y35	Z35	X36	Y36	Z36	X37	Y37	Z37	X38	Y38	Z38	X39	Y39	Z39	X40	Y40	Z40	X41	Y41	Z41	X42	Y42	Z42	X43	Y43	Z43	X44	Y44	Z44	X45	Y45	Z45	X46	Y46	Z46	X47	Y47	Z47	X48	Y48	Z48	X49	Y49	Z49	X50	Y50	Z50	X51	Y51	Z51	

1	0	NaN	NaN	NaN	-1714	1487.2	467.21	-1730.5	1470	117.8	-1667	1811.3	274.9	-1607.9	972.21	437.97	NaN	NaN	NaN	NaN	NaN	NaN	NaN	NaN	NaN	-1734.3	902.96	488.1	-1696.6	901.69	107.64	-1716.4	1069	470.38	-1703.9	1069.1	131.06	-1839.3	969.64	272.95	-1796.5	661.36	473.33	-1737.4	561.05	440.91	-1819.7	574.33	460.36	NaN	NaN	NaN	-1827.4	500.61	451.66	-1842.1	502.99	320.23	-1967.9	310.84	438.96	NaN	NaN	NaN	-1994.7	248.37	421.18	NaN	NaN	NaN	-2013	132.58	403.51	-2001.4	144.46	312.1	-2096.1	118.52	345.43	-2092.1	83.731	318.17	-2099.3	88.382	381.45	NaN	NaN	NaN	-1896.7	41.949	315.29	-1830.5	50.201	362.25	-1634.6	666.74	115.39	-1521.7	608.27	118.97	-1591.8	588.5	129.96	NaN	NaN	NaN	NaN	NaN	NaN	-1502	510.05	257.58	-1525.2	324	131.65	NaN	NaN	NaN	-1478.1	254.22	139.26	NaN	NaN	NaN	-1361.6	122.74	144.37	-1358	136.9	236.39	-1417.4	61.672	193.25	-1395.5	44.185	226.62	-1393.1	36.922	166.33	-1231.3	119.85	122.94	-1207.6	146.5	234.1	-1166	184.9	185.23	-1769	1533.6	298.27	-1848.4	1273.7	283.21
2	0.0041667	NaN	NaN	NaN	-1708.7	1486.8	466.44	-1725.6	1469.4	117.07	-1662.1	1810.9	274.03	-1602.4	971.79	437.37	NaN	NaN	NaN	NaN	NaN	NaN	NaN	NaN	NaN	-1729	902.55	487.46	-1690.7	901.44	106.99	-1710.9	1068.5	469.74	-1698.3	1068.7	130.46	-1833.7	969.3	272.13	-1791.2	660.98	472.88	-1732.2	560.64	440.62	-1815	574.08	459.83	NaN	NaN	NaN	-1821.8	499.92	451.21	-1836.5	502.31	320.09	-1964.1	311.42	438.95	NaN	NaN	NaN	-1992.2	249.62	421.08	NaN	NaN	NaN	-2012.7	134.55	403.17	-2000	145.89	312.18	-2094.8	120.85	345.54	-2091.2	86.156	318.14	-2098.4	90.688	381.44	-1932.7	48.067	433.15	-1896.5	42.044	315.33	-1830.1	49.957	362.24	-1628.4	666.61	114.94	-1515.5	608.32	119.04	-1585.6	588.44	129.62	NaN	NaN	NaN	NaN	NaN	NaN	-1495.6	510.17	256.85	-1520.3	323.34	131.91	NaN	NaN	NaN	-1475.2	253.51	139.27	NaN	NaN	NaN	-1360	121.25	144.53	-1356.2	135.28	236.59	-1416.4	61.2	193.35	-1394.7	43.458	226.66	-1392.5	36.257	166.38	-1229.9	117.11	123.1	-1205.7	143.37	234.31	-1163.8	181.37	185.38	-1763.9	1533.1	297.52	-1843.2	1273.1	282.68
3	0.0083333	NaN	NaN	NaN	-1703.2	1486.3	465.63	-1720.6	1468.9	116.3	-1656.9	1810.5	273.12	-1596.7	971.37	436.74	NaN	NaN	NaN	NaN	NaN	NaN	NaN	NaN	NaN	-1723.6	902.13	486.79	-1684.7	901.2	106.3	-1705.2	1068	469.07	-1692.5	1068.2	129.83	-1827.9	968.97	271.27	-1785.7	660.58	472.4	-1726.8	560.2	440.33	-1810	573.79	459.27	NaN	NaN	NaN	-1816	499.22	450.75	-1830.6	501.62	319.92	-1959.9	312	438.94	NaN	NaN	NaN	-1989.6	250.94	420.98	NaN	NaN	NaN	-2012.3	136.62	402.83	-1998.5	147.39	312.26	-2093.4	123.32	345.63	-2090.2	88.739	318.09	-2097.4	93.144	381.41	-1932.3	48.407	433.2	-1896.4	42.145	315.36	-1829.8	49.715	362.22	-1621.9	666.48	114.48	-1509	608.36	119.1	-1579.1	588.36	129.27	NaN	NaN	NaN	NaN	NaN	NaN	-1488.9	510.32	256.02	-1515.2	322.7	132.14	NaN	NaN	NaN	-1472	252.78	139.27	NaN	NaN	NaN	-1358.3	119.74	144.7	-1354.2	133.62	236.79	-1415.2	60.767	193.45	-1393.8	42.769	226.7	-1391.8	35.627	166.43	-1228.4	114.27	123.29	-1203.8	140.1	234.54	-1161.5	177.69	185.56	-1758.7	1532.5	296.73	-1837.7	1272.4	282.11
4	0.0125	NaN	NaN	NaN	-1697.5	1485.8	464.79	-1715.4	1468.4	115.5	-1651.6	1810.1	272.18	-1590.8	970.95	436.09	NaN	NaN	NaN	NaN	NaN	NaN	NaN	NaN	NaN	-1717.8	901.7	486.09	-1678.4	900.99	105.59	-1699.2	1067.6	468.38	-1686.5	1067.7	129.18	-1821.8	968.65	270.39	-1780	660.16	471.9	-1721.2	559.74	440.03	-1804.7	573.47	458.71	NaN	NaN	NaN	-1809.9	498.49	450.3	-1824.5	500.91	319.74	-1955.5	312.55	438.9	NaN	NaN	NaN	-1986.8	252.34	420.86	NaN	NaN	NaN	-2011.8	138.78	402.49	-1996.9	148.95	312.35	-2091.9	125.95	345.71	-2089.1	91.477	318.02	-2096.3	95.75	381.37	-1932	48.774	433.25	-1896.2	42.252	315.39	-1829.5	49.477	362.19	-1615.2	666.36	114.01	-1502.4	608.37	119.13	-1572.6	588.29	128.9	NaN	NaN	NaN	NaN	NaN	NaN	-1482	510.48	255.12	-1510.1	322.07	132.34	NaN	NaN	NaN	-1468.7	252.06	139.25	-1444.1	335.43	122.67	-1356.5	118.22	144.87	-1352.2	131.96	237	-1413.9	60.388	193.55	-1392.9	42.134	226.74	-1391.1	35.051	166.48	-1226.9	111.35	123.51	-1201.9	136.74	234.79	-1159.1	173.87	185.78	-1753.2	1532	295.91	-1832.1	1271.8	281.53
